# xmcd
# 
# Track frame offsets:
#     150
#     18655
#     33270
#     61582
#     79582
#     100950
#     117162
#     142027
#     162057
#     185277
#     206670
#     230312
# 
# Disc length: 3324
# 
# Revision: 10
# Processed by: cddbd v1.5.2PL0 Copyright (c) Steve Scherf et al.
# Submitted via: fre:ac v1.1beta1pre4
# 
DISCID=920cfa0c
DTITLE=Bonnie Raitt - Silver Lining
DYEAR=2002
DGENRE=Pop/Rock* Blues Rock
TTITLE0=Fools Game
TTITLE1=I Can't Help You Now
TTITLE2=Silver Lining
TTITLE3=Time Of Our Lives
TTITLE4=Gnawin' On It
TTITLE5=Monkey Business
TTITLE6=Wherever You May Be
TTITLE7=Valley Of Pain
TTITLE8=Hear Me Lord
TTITLE9=No Gettin' Over You
TTITLE10=Back Around
TTITLE11=Wounded Heart
EXTD=
EXTT0=
EXTT1=
EXTT2=
EXTT3=
EXTT4=
EXTT5=
EXTT6=
EXTT7=
EXTT8=
EXTT9=
EXTT10=
EXTT11=
PLAYORDER=
